             Trois-The Trilogy DVDRip Xvid LKRG


RIPPER                           : fasamoo


Trois 

Format                           : AVI
Format/Info                      : Audio Video Interleave
File size                        : 701 MiB
Duration                         : 1h 32mn
Overall bit rate                 : 1 056 Kbps
Writing application              : VirtualDubMod 1.5.4.1 (build 2178/release)
Writing library                  : VirtualDubMod build 2178/release
Language                         : English
Subtitles                        : None
Genre                            : Thriller

Trois 2-Pandora's Box 

Format                           : AVI
Format/Info                      : Audio Video Interleave
File size                        : 700 MiB
Duration                         : 1h 43mn
Overall bit rate                 : 949 Kbps
Writing application              : VirtualDubMod 1.5.4.1 (build 2178/release)
Writing library                  : VirtualDubMod build 2178/release
Language                         : English
Subtitles                        : English(*.srt)
                                   English , French , Spanish ,                                            Portuguese , Chinese , Thai                                             (*.idx,*.sub)
Genre                            : Thriller    

Trois 3-The Escort

Format                           : AVI
Format/Info                      : Audio Video Interleave
File size                        : 700 MiB
Duration                         : 1h 35mn
Overall bit rate                 : 1 029 Kbps
Writing application              : VirtualDubMod 1.5.4.1 (build 2178/release)
Writing library                  : VirtualDubMod build 2178/release
Language                         : English
Subtitles                        : English(*.srt)
                                   English, French, Spanish,                                               Portuguese, Chinese, Thai, Korean                                       (*.idx,*.sub)
Genre                            : Thriller  

Trois 2000

Video
ID                               : 0
Format                           : MPEG-4 Visual
Format profile                   : Advanced Simple@L5
Format settings, BVOP            : No
Format settings, QPel            : No
Format settings, GMC             : No warppoints
Format settings, Matrix          : Custom
Codec ID                         : XVID
Codec ID/Hint                    : XviD
Duration                         : 1h 32mn
Bit rate                         : 933 Kbps
Width                            : 608 pixels
Height                           : 336 pixels
Display aspect ratio             : 16:9
Frame rate                       : 23.976 fps
Color space                      : YUV
Chroma subsampling               : 4:2:0
Bit depth                        : 8 bits
Scan type                        : Progressive
Bits/(Pixel*Frame)               : 0.191
Stream size                      : 619 MiB (88%)
Writing library                  : XviD 1.2.1 (UTC 2008-12-04)

Audio
ID                               : 1
Format                           : MPEG Audio
Format version                   : Version 1
Format profile                   : Layer 3
Mode                             : Joint stereo
Mode extension                   : MS Stereo
Codec ID                         : 55
Codec ID/Hint                    : MP3
Duration                         : 1h 32mn
Bit rate mode                    : Variable
Bit rate                         : 110 Kbps
Nominal bit rate                 : 128 Kbps
Channel(s)                       : 2 channels
Sampling rate                    : 48.0 KHz
Stream size                      : 73.1 MiB (10%)
Alignment                        : Aligned on interleaves
Interleave, duration             : 24 ms (0.58 video frame)
Interleave, preload duration     : 166 ms
Writing library                  : LAME3.98r
Encoding settings                : -m j -V 4 -q 2 -lowpass 17 --abr 128

Trois 2-Pandora's Box 2002

Video
ID                               : 0
Format                           : MPEG-4 Visual
Format profile                   : Advanced Simple@L5
Format settings, BVOP            : Yes
Format settings, QPel            : No
Format settings, GMC             : No warppoints
Format settings, Matrix          : Custom
Codec ID                         : XVID
Codec ID/Hint                    : XviD
Duration                         : 1h 43mn
Bit rate                         : 825 Kbps
Width                            : 608 pixels
Height                           : 336 pixels
Display aspect ratio             : 16:9
Frame rate                       : 23.976 fps
Color space                      : YUV
Chroma subsampling               : 4:2:0
Bit depth                        : 8 bits
Scan type                        : Progressive
Bits/(Pixel*Frame)               : 0.169
Stream size                      : 609 MiB (87%)
Writing library                  : XviD 1.2.1 (UTC 2008-12-04)

Audio
ID                               : 1
Format                           : MPEG Audio
Format version                   : Version 1
Format profile                   : Layer 3
Mode                             : Joint stereo
Mode extension                   : MS Stereo
Codec ID                         : 55
Codec ID/Hint                    : MP3
Duration                         : 1h 43mn
Bit rate mode                    : Variable
Bit rate                         : 110 Kbps
Nominal bit rate                 : 128 Kbps
Channel(s)                       : 2 channels
Sampling rate                    : 48.0 KHz
Stream size                      : 81.5 MiB (12%)
Alignment                        : Aligned on interleaves
Interleave, duration             : 24 ms (0.58 video frame)
Interleave, preload duration     : 166 ms
Writing library                  : LAME3.98r
Encoding settings                : -m j -V 4 -q 2 -lowpass 17 --abr 128

Trois 3-The Escort 2004

Video
ID                               : 0
Format                           : MPEG-4 Visual
Format profile                   : Advanced Simple@L5
Format settings, BVOP            : Yes
Format settings, QPel            : No
Format settings, GMC             : No warppoints
Format settings, Matrix          : Custom
Codec ID                         : XVID
Codec ID/Hint                    : XviD
Duration                         : 1h 35mn
Bit rate                         : 900 Kbps
Width                            : 464 pixels
Height                           : 256 pixels
Display aspect ratio             : 16:9
Frame rate                       : 23.976 fps
Color space                      : YUV
Chroma subsampling               : 4:2:0
Bit depth                        : 8 bits
Scan type                        : Progressive
Bits/(Pixel*Frame)               : 0.316
Stream size                      : 613 MiB (88%)
Writing library                  : XviD 1.2.1 (UTC 2008-12-04)

Audio
ID                               : 1
Format                           : MPEG Audio
Format version                   : Version 1
Format profile                   : Layer 3
Mode                             : Joint stereo
Mode extension                   : MS Stereo
Codec ID                         : 55
Codec ID/Hint                    : MP3
Duration                         : 1h 35mn
Bit rate mode                    : Variable
Bit rate                         : 116 Kbps
Nominal bit rate                 : 128 Kbps
Channel(s)                       : 2 channels
Sampling rate                    : 48.0 KHz
Stream size                      : 78.8 MiB (11%)
Alignment                        : Aligned on interleaves
Interleave, duration             : 24 ms (0.58 video frame)
Interleave, preload duration     : 159 ms
Writing library                  : LAME3.98r
Encoding settings                : -m j -V 4 -q 2 -lowpass 17 --abr 128

Trois 2000

                                 PLOT


Jermaine, a young struggling Atlanta lawyer, decides to spruce up his marriage with Jasmine, who's mentally recovering from an abusive previous relationship, by hiring Jade, a bisexual stripper/prostitute fighting a custody battle with her ex-husband for their four-year-old son, for a threesome menage-a-trois get together only to have all three of them suffer the after-affects when Jermaine begins acting possessive towards Jasmine and Jade which leads to Jade (or someone) stalking him and disrupting his private and professional life.
  
                                  IMBD
                     
                    http://www.imdb.com/title/tt0217107/

Trois 2-Pandora's Box

                                 PLOT


Mia DuBois (Calhoun) is a walking cliché--a successful therapist with an unsuccessful marriage. Her husband, Victor (St. John), is more interested in working on his laptop than on her. So she is very receptive to hearing about the wild sex life that her new client Tammy (Wilson) and Tammy's husband enjoyed, before he was murdered. Mia even accepts an invitation from Tammy to Pandora's Box, a no holds barred secret club of sex, drugs, and even more sex. She falls under the spell of a dark, handsome stranger named Hampton (White), a walking streak of sex. But is Hampton all he seems?
  
                                  IMBD
                     
                    http://www.imdb.com/title/tt0285869/

Trois 3-The Escort

                                 PLOT


When a hip-hop promoter is bailed out of a hefty debt by a club owner, he becomes one of her call boys and nearly loses his life in the process. 
  
                                  IMBD
                     
                    http://www.imdb.com/title/tt0418604/
 
http://leetleech.org/images/46267783776751915373.png 
http://leetleech.org/images/07112711356002930832.png 
http://leetleech.org/images/05093575071289066454.png 
http://leetleech.org/images/07807058436743484388.png 
http://leetleech.org/images/28350466557330689330.png 
http://leetleech.org/images/59884662943734955394.png 
http://leetleech.org/images/43678894996217455065.png 
http://leetleech.org/images/99718267137630403776.png 
http://leetleech.org/images/07766008436098428131.png


